<?xml version="1.0" encoding="UTF-8"?>
<svg width="24px" height="24px" viewBox="0 0 24 24" version="1.1" xmlns="http://www.w3.org/2000/svg" xmlns:xlink="http://www.w3.org/1999/xlink">
    <!-- Generator: Sketch 54.1 (76490) - https://sketchapp.com -->
    <title>spotify-color</title>
    <desc>Created with Sketch.</desc>
    <g id="Mockups" stroke="none" stroke-width="1" fill="none" fill-rule="evenodd">
        <path d="M11.9999284,2.2158769e-13 C18.6274517,2.2158769e-13 24,5.37254832 24,11.9997851 C24,18.6277383 18.6274517,24 11.9999284,24 C5.37269161,24 1.81188398e-13,18.6277383 1.81188398e-13,11.9997851 C1.81188398e-13,5.37254832 5.37269161,2.2158769e-13 11.9999284,2.2158769e-13 Z M17.2394943,17.0472685 C17.4517612,16.7000764 17.3423817,16.2463276 16.9950485,16.0342017 C13.8797765,14.1305734 10.0179006,13.6876919 5.51569538,14.716848 C5.11840047,14.8073155 4.87084975,15.2024934 4.96174066,15.5989415 C5.05206704,15.9952485 5.44724493,16.243646 5.84369303,16.1527551 C9.95777712,15.2130785 13.4511497,15.5961188 16.2265687,17.2924199 C16.5736195,17.5046869 17.0270862,17.3955895 17.2394943,17.0472685 Z M18.6857042,13.828968 C18.9520259,13.3962482 18.8156895,12.8288856 18.3825463,12.5621405 C14.7344899,10.3202117 9.39803587,9.68933843 5.10541605,10.9920141 C4.61892385,11.1402058 4.34413408,11.6539371 4.49091444,12.141135 C4.63896501,12.6276272 5.15368421,12.9022758 5.64088209,12.755072 C9.39860041,11.6144193 14.24207,12.1800882 17.4181711,14.1324081 C17.8513143,14.3987298 18.4183946,14.2626757 18.6857042,13.828968 Z M18.8104675,10.4778595 C19.3345016,10.7897677 20.0135019,10.6165951 20.3251279,10.0912908 C20.6364716,9.56683328 20.464287,8.88839753 19.9388415,8.57648927 C15.5529315,5.97297266 8.61276095,5.72824463 4.43770656,6.99549544 C3.85326669,7.17304322 3.52399882,7.7902264 3.70098206,8.37466627 C3.87782417,8.95868274 4.49543076,9.28837401 5.07958836,9.1111085 C8.71649515,8.00729197 15.0006704,8.2153249 18.8104675,10.4778595 Z" id="spotify-color" fill="#1ED760"></path>
    </g>
</svg>